<svg xmlns="http://www.w3.org/2000/svg" viewBox="0 0 24 24">
<path d="M12 2.04c-5.52 0-10 4.48-10 10s4.48 10 10 10 10-4.48 10-10-4.48-10-10-10zm5.27 8.1c-.24.11-.5.18-.77.21.28-.17.49-.44.59-.75-.26.15-.55.27-.86.33-.25-.26-.6-.42-1-.42-.75 0-1.36.61-1.36 1.36 0 .11.01.21.04.31-1.13-.06-2.13-.6-2.8-1.42-.12.2-.18.44-.18.7 0 .47.24.89.61 1.13-.22-.01-.43-.07-.61-.17v.02c0 .66.47 1.21 1.09 1.34-.11.03-.23.05-.35.05-.09 0-.17-.01-.26-.02.17.54.68.94 1.28.95-.47.37-1.06.58-1.7.58-.11 0-.22-.01-.33-.02.6.39 1.32.62 2.1.62 2.52 0 3.9-2.09 3.9-3.9v-.18c.27-.19.5-.44.68-.71z"/>
</svg>